<?xml version="1.0" encoding="iso-8859-1"?>
<!-- Generator: Adobe Illustrator 15.0.0, SVG Export Plug-In . SVG Version: 6.00 Build 0)  -->
<!DOCTYPE svg PUBLIC "-//W3C//DTD SVG 1.1//EN" "http://www.w3.org/Graphics/SVG/1.1/DTD/svg11.dtd">
<svg version="1.1" id="&#x30EC;&#x30A4;&#x30E4;&#x30FC;_1"
	 xmlns="http://www.w3.org/2000/svg" xmlns:xlink="http://www.w3.org/1999/xlink" x="0px" y="0px" width="141.732px"
	 height="141.731px" viewBox="0 0 141.732 141.731" style="enable-background:new 0 0 141.732 141.731;" xml:space="preserve">
<g>
	<path style="fill-rule:evenodd;clip-rule:evenodd;fill:#525252;" d="M34.925,116.119c0.607-0.372,0.928-0.857,0.952-1.349V90.896
		l20.934-10.537h28.11l20.934,10.537v23.874c0.025,0.491,0.345,0.977,0.952,1.349c1.272,0.78,3.333,0.78,4.606,0
		c0.606-0.372,0.927-0.857,0.951-1.349V82.67h-6.51v2.194L88.382,71.023l-1.999-12.727l13.233-11.755v15.471
		c0.021,0.456,0.314,0.909,0.873,1.256c1.167,0.727,3.055,0.727,4.221,0c0.559-0.347,0.852-0.8,0.873-1.256V39.945h-5.967v2.441
		l-16.841,6.781H58.281l-16.165-6.51v-2.441h-5.967v22.067c0.021,0.456,0.314,0.909,0.873,1.256c1.167,0.727,3.054,0.727,4.221,0
		c0.559-0.347,0.852-0.8,0.874-1.256V46.813L55.55,58.745l-1.894,12.032L35.877,84.864V82.67h-6.509v32.101
		c0.024,0.491,0.344,0.977,0.952,1.349C31.592,116.899,33.653,116.899,34.925,116.119z"/>
	<path style="fill-rule:evenodd;clip-rule:evenodd;fill:#666666;" d="M37.021,38.874c-1.164,0.74-1.164,1.945,0,2.685
		c1.167,0.741,3.054,0.741,4.221,0c1.164-0.74,1.164-1.945,0-2.685C40.076,38.134,38.188,38.134,37.021,38.874z M30.319,81.228
		c-1.269,0.797-1.269,2.088,0,2.883c1.272,0.797,3.333,0.797,4.606,0c1.269-0.795,1.269-2.086,0-2.883
		C33.653,80.433,31.592,80.433,30.319,81.228z M106.807,81.228c-1.269,0.797-1.269,2.088,0,2.883c1.272,0.797,3.333,0.797,4.606,0
		c1.269-0.795,1.269-2.086,0-2.883C110.14,80.433,108.08,80.433,106.807,81.228z M100.49,38.603c-1.163,0.741-1.163,1.945,0,2.686
		c1.167,0.74,3.055,0.74,4.221,0c1.164-0.741,1.164-1.945,0-2.686C103.544,37.862,101.657,37.862,100.49,38.603z"/>
	<path style="fill-rule:evenodd;clip-rule:evenodd;fill:#4E4E4E;" d="M37.684,38.907c0.827-0.529,2.167-0.529,2.995,0
		c0.827,0.529,0.827,1.389,0,1.917c-0.828,0.529-2.167,0.529-2.995,0C36.856,40.295,36.856,39.436,37.684,38.907z"/>
	<rect x="37.063" y="37.86" style="fill-rule:evenodd;clip-rule:evenodd;fill:#4E4E4E;" width="4.237" height="2.246"/>
	<path style="fill-rule:evenodd;clip-rule:evenodd;fill:#4E4E4E;" d="M104.048,38.635c-0.826-0.529-2.166-0.529-2.994,0
		c-0.827,0.529-0.827,1.389,0,1.917c0.828,0.529,2.168,0.529,2.994,0C104.876,40.024,104.876,39.164,104.048,38.635z"/>
	<rect x="100.433" y="37.588" style="fill-rule:evenodd;clip-rule:evenodd;fill:#4E4E4E;" width="4.236" height="2.246"/>
	<path style="fill-rule:evenodd;clip-rule:evenodd;fill:#4E4E4E;" d="M30.981,80.695c0.982-0.724,2.571-0.724,3.553,0
		c0.979,0.728,0.979,1.907,0,2.632c-0.982,0.727-2.571,0.727-3.553,0C30.002,82.603,30.002,81.423,30.981,80.695z"/>
	<rect x="30.247" y="79.261" style="fill-rule:evenodd;clip-rule:evenodd;fill:#4E4E4E;" width="5.023" height="3.081"/>
	<path style="fill-rule:evenodd;clip-rule:evenodd;fill:#4E4E4E;" d="M110.751,80.695c-0.982-0.724-2.572-0.724-3.554,0
		c-0.979,0.728-0.979,1.907,0,2.632c0.981,0.727,2.571,0.727,3.554,0C111.73,82.603,111.73,81.423,110.751,80.695z"/>
	<rect x="106.462" y="79.261" style="fill-rule:evenodd;clip-rule:evenodd;fill:#4E4E4E;" width="5.023" height="3.081"/>
	<path style="fill-rule:evenodd;clip-rule:evenodd;fill:#E97163;" d="M34.925,116.39c0.607-0.371,0.928-0.857,0.952-1.348v-2.983
		c-0.024,0.491-0.344,0.977-0.952,1.348c-1.272,0.781-3.333,0.781-4.606,0c-0.607-0.371-0.927-0.856-0.952-1.348v2.983
		c0.024,0.49,0.344,0.977,0.952,1.348C31.592,117.171,33.653,117.171,34.925,116.39z M111.414,116.39
		c0.606-0.371,0.927-0.857,0.951-1.348v-2.983c-0.024,0.491-0.345,0.977-0.951,1.348c-1.273,0.781-3.334,0.781-4.606,0
		c-0.607-0.371-0.927-0.856-0.952-1.348v2.983c0.025,0.49,0.345,0.977,0.952,1.348C108.08,117.171,110.14,117.171,111.414,116.39z"
		/>
	<path style="fill-rule:evenodd;clip-rule:evenodd;fill:#5A5A5A;" d="M18.247,41.717c0,7.41,9.349,13.418,20.885,13.418
		s20.885-6.008,20.885-13.418v-0.101v-1.392h-0.006c0.006-0.098,0.006-0.198,0.006-0.298c0-7.63-9.35-13.814-20.885-13.814
		s-20.885,6.185-20.885,13.814c0,0.1,0,0.2,0.005,0.298h-0.005v1.392V41.717z M58.053,39.842c-0.426,2.712-2.251,5.352-5.471,7.429
		c-7.429,4.793-19.472,4.793-26.901,0c-3.22-2.078-5.045-4.717-5.471-7.429c0.974-6.187,9.073-11.012,18.921-11.012
		C48.98,28.83,57.08,33.655,58.053,39.842z"/>
	<path style="fill-rule:evenodd;clip-rule:evenodd;fill:#DD6453;" d="M26.802,30.604c1.047-0.67,2.894-0.573,6.298,1.608
		c3.407,2.178,7.082,5.615,6.038,6.285c-1.047,0.67-6.42-1.682-9.824-3.862C25.907,32.457,25.754,31.274,26.802,30.604z"/>
	<path style="fill-rule:evenodd;clip-rule:evenodd;fill:#E97163;" d="M51.646,46.504c1.047-0.67,0.895-1.853-2.509-4.033
		c-2.368-1.514-5.682-3.111-7.836-3.722v0.648v0.005c-0.008,0.063-0.117,0.684-1.608,0.7c1.052,1.378,3.412,3.358,5.655,4.793
		C48.755,47.076,50.603,47.171,51.646,46.504z"/>
	<path style="fill-rule:evenodd;clip-rule:evenodd;fill:#5A5A5A;" d="M81.715,41.445c0,7.41,9.35,13.418,20.886,13.418
		c11.535,0,20.885-6.008,20.885-13.418v-0.1v-1.392h-0.006c0.006-0.098,0.006-0.198,0.006-0.298c0-7.63-9.35-13.814-20.885-13.814
		c-11.536,0-20.886,6.184-20.886,13.814c0,0.1,0,0.201,0.006,0.298h-0.006v1.392V41.445z M121.522,39.571
		c-0.426,2.712-2.252,5.352-5.472,7.429c-7.428,4.793-19.471,4.793-26.9,0c-3.219-2.077-5.045-4.716-5.471-7.429
		c0.974-6.187,9.072-11.012,18.922-11.012C112.449,28.559,120.548,33.384,121.522,39.571z"/>
	<path style="fill-rule:evenodd;clip-rule:evenodd;fill:#DD6453;" d="M114.931,30.333c-1.047-0.67-2.895-0.572-6.299,1.608
		c-3.406,2.178-7.082,5.614-6.037,6.284c1.047,0.67,6.42-1.682,9.824-3.862C115.826,32.186,115.978,31.003,114.931,30.333z"/>
	<path style="fill-rule:evenodd;clip-rule:evenodd;fill:#E97163;" d="M90.172,46.504c-1.047-0.67-0.897-1.853,2.509-4.033
		c2.368-1.514,5.683-3.111,7.836-3.722v0.648v0.005c0.006,0.063,0.117,0.684,1.609,0.7c-1.053,1.378-3.412,3.358-5.656,4.793
		C93.064,47.076,91.216,47.171,90.172,46.504z"/>
	<polygon style="fill-rule:evenodd;clip-rule:evenodd;fill:#5A5A5A;" points="57.055,47.269 53.507,73.308 88.497,73.308 
		84.949,47.269 84.97,47.269 80.455,43.2 61.549,43.2 57.033,47.269 	"/>
	<path style="fill-rule:evenodd;clip-rule:evenodd;fill:#5A5A5A;" d="M7.94,84.292c0,10.111,11.112,18.309,24.818,18.309
		s24.818-8.197,24.818-18.309v-0.136v-1.898H57.57c0.003-0.136,0.005-0.271,0.005-0.406C57.576,71.441,46.463,63,32.758,63
		S7.94,71.441,7.94,81.852c0,0.135,0.003,0.271,0.006,0.406H7.94v1.898V84.292z M55.243,81.731
		c-0.507,3.703-2.674,7.305-6.504,10.139c-8.826,6.54-23.136,6.54-31.962,0c-3.83-2.834-5.997-6.436-6.504-10.139
		c1.156-8.438,10.782-15.023,22.485-15.023S54.087,73.294,55.243,81.731z"/>
	<path style="fill-rule:evenodd;clip-rule:evenodd;fill:#DD6453;" d="M18.082,69.301c1.239-0.919,3.431-0.786,7.47,2.205
		c4.039,2.992,8.395,7.709,7.155,8.628c-1.242,0.92-7.608-2.308-11.647-5.3C17.021,71.843,16.842,70.221,18.082,69.301z"/>
	<path style="fill-rule:evenodd;clip-rule:evenodd;fill:#E97163;" d="M49.213,90.449c1.405-0.896,1.202-2.474-3.371-5.387
		c-3.176-2.023-7.627-4.158-10.519-4.975v0.865v0.005c-0.008,0.085-0.157,0.915-2.159,0.939c1.411,1.838,4.581,4.486,7.592,6.403
		C45.33,91.214,47.809,91.345,49.213,90.449z"/>
	<path style="fill-rule:evenodd;clip-rule:evenodd;fill:#5A5A5A;" d="M84.157,84.292c0,10.111,11.112,18.309,24.817,18.309
		c13.706,0,24.818-8.197,24.818-18.309v-0.136v-1.898h-0.006c0.003-0.136,0.006-0.271,0.006-0.406
		c0-10.41-11.112-18.852-24.818-18.852c-13.705,0-24.817,8.441-24.817,18.852c0,0.135,0.003,0.271,0.005,0.406h-0.005v1.898V84.292z
		 M131.459,81.731c-0.507,3.703-2.674,7.305-6.504,10.139c-8.826,6.54-23.136,6.54-31.962,0c-3.83-2.834-5.997-6.436-6.504-10.139
		c1.154-8.438,10.781-15.023,22.484-15.023C120.678,66.708,130.304,73.294,131.459,81.731z"/>
	<path style="fill-rule:evenodd;clip-rule:evenodd;fill:#DD6453;" d="M123.651,69.301c-1.239-0.919-3.431-0.786-7.47,2.205
		c-4.039,2.992-8.395,7.709-7.155,8.628c1.242,0.92,7.608-2.308,11.647-5.3C124.711,71.843,124.89,70.221,123.651,69.301z"/>
	<path style="fill-rule:evenodd;clip-rule:evenodd;fill:#E97163;" d="M92.519,90.449c-1.405-0.896-1.201-2.474,3.371-5.387
		c3.176-2.023,7.627-4.158,10.519-4.975v0.865v0.005c0.008,0.085,0.157,0.915,2.159,0.939c-1.41,1.838-4.582,4.486-7.592,6.403
		C96.403,91.214,93.923,91.345,92.519,90.449z"/>
	<path style="fill-rule:evenodd;clip-rule:evenodd;fill:#666666;" d="M61.381,43.2l-2.449,24.682h24.14L80.623,43.2H61.381z
		 M37.684,36.821c-0.828,0.529-0.828,1.389,0,1.917c0.827,0.529,2.167,0.529,2.995,0c0.827-0.529,0.827-1.389,0-1.917
		C39.851,36.292,38.511,36.292,37.684,36.821z M24.376,28.95c-8.175,5.232-8.175,13.713,0,18.943c8.178,5.229,21.431,5.229,29.605,0
		s8.175-13.711,0-18.943C45.807,23.72,32.555,23.72,24.376,28.95z M25.701,29.796c7.445-4.763,19.515-4.763,26.96,0
		c7.445,4.763,7.445,12.488,0,17.25c-7.446,4.763-19.515,4.763-26.96,0S18.255,34.559,25.701,29.796z M104.048,36.55
		c-0.826-0.529-2.166-0.529-2.994,0c-0.827,0.529-0.827,1.389,0,1.917c0.828,0.529,2.168,0.529,2.994,0
		C104.876,37.938,104.876,37.079,104.048,36.55z M117.355,28.679c-8.177-5.229-21.43-5.229-29.604,0
		c-8.175,5.232-8.175,13.713,0,18.942c8.175,5.229,21.428,5.229,29.604,0C125.531,42.392,125.531,33.911,117.355,28.679z
		 M116.032,29.524c7.445,4.763,7.445,12.488,0,17.251c-7.445,4.763-19.516,4.763-26.96,0c-7.445-4.763-7.445-12.488,0-17.251
		C96.516,24.762,108.586,24.762,116.032,29.524z M30.981,77.834c-0.979,0.728-0.979,1.904,0,2.631c0.982,0.727,2.571,0.727,3.553,0
		c0.979-0.727,0.979-1.903,0-2.631C33.553,77.106,31.963,77.106,30.981,77.834z M15.209,67.028c-9.691,7.183-9.691,18.823,0,26.003
		c9.691,7.18,25.407,7.18,35.098,0s9.691-18.82,0-26.003C40.616,59.849,24.9,59.849,15.209,67.028z M16.777,68.189
		c8.826-6.537,23.136-6.537,31.962,0c8.829,6.54,8.829,17.142,0,23.681c-8.826,6.54-23.136,6.54-31.962,0
		C7.948,85.331,7.948,74.729,16.777,68.189z M110.751,77.834c-0.982-0.728-2.572-0.728-3.554,0c-0.979,0.728-0.979,1.904,0,2.631
		c0.981,0.727,2.571,0.727,3.554,0C111.73,79.738,111.73,78.562,110.751,77.834z M126.523,67.028c-9.69-7.18-25.406-7.18-35.098,0
		c-9.691,7.183-9.691,18.823,0,26.003s25.407,7.18,35.098,0C136.214,85.852,136.214,74.211,126.523,67.028z M124.956,68.189
		c8.829,6.54,8.829,17.142,0,23.681c-8.826,6.54-23.136,6.54-31.962,0c-8.828-6.539-8.828-17.142,0-23.681
		C101.82,61.652,116.129,61.652,124.956,68.189z"/>
	<path style="fill-rule:evenodd;clip-rule:evenodd;fill:#E97163;" d="M67.627,54.044c0.036-0.005,0.084-0.011,0.149-0.011
		c0.285,0,0.442,0.163,0.399,0.502c-0.052,0.407-0.277,0.586-0.586,0.583c-0.043,0-0.092,0-0.125-0.005L67.627,54.044z
		 M67.069,55.381c0.092,0.011,0.228,0.024,0.396,0.024c0.298,0,0.542-0.076,0.724-0.228c0.155-0.119,0.315-0.317,0.35-0.648
		c0.03-0.271-0.049-0.453-0.204-0.575c-0.125-0.117-0.295-0.176-0.559-0.176c-0.16,0-0.32,0.014-0.447,0.035L67.069,55.381z
		 M69.179,54.589l0.043-0.542c0.027-0.008,0.079-0.014,0.149-0.014c0.117,0,0.274,0.043,0.261,0.269
		c-0.008,0.171-0.13,0.288-0.317,0.288H69.179z M69.646,54.728c0.174-0.07,0.323-0.236,0.331-0.456
		c0.022-0.466-0.415-0.494-0.624-0.494c-0.163,0-0.326,0.017-0.445,0.035l-0.149,1.568h0.358l0.041-0.518h0.114
		c0.157,0,0.222,0.049,0.257,0.211c0.033,0.158,0.071,0.269,0.095,0.307h0.369c-0.035-0.049-0.076-0.204-0.122-0.355
		c-0.035-0.127-0.1-0.239-0.225-0.292V54.728z M70.891,54.033c0.266,0,0.393,0.25,0.396,0.523c0.005,0.31-0.133,0.562-0.404,0.562
		c-0.269,0-0.409-0.252-0.404-0.556C70.486,54.288,70.617,54.033,70.891,54.033z M70.901,53.778c-0.466,0-0.768,0.345-0.784,0.789
		c-0.019,0.45,0.247,0.838,0.751,0.838c0.475,0,0.798-0.32,0.781-0.86C71.639,54.147,71.393,53.778,70.901,53.778z M73.318,53.8
		h-0.333l0.04,0.45c0.021,0.255,0.055,0.48,0.096,0.687h-0.006c-0.087-0.168-0.195-0.363-0.299-0.521L72.431,53.8h-0.391
		l0.076,1.582h0.357l-0.032-0.51c-0.019-0.331-0.043-0.564-0.07-0.765h0.011c0.082,0.179,0.192,0.383,0.293,0.554l0.42,0.721h0.391
		L73.318,53.8z M74.886,55.118H74.21l-0.057-0.42h0.591l-0.046-0.269h-0.583l-0.055-0.396h0.608l-0.041-0.255h-0.936l0.197,1.627
		h1.045L74.886,55.118z"/>
</g>
</svg>
